<?xml version="1.0" standalone="no"?>
<svg xmlns:xlink="http://www.w3.org/1999/xlink" id="wave" style="transform:rotate(180deg); transition: 0.3s" viewBox="0 0 1440 340" version="1.1" xmlns="http://www.w3.org/2000/svg"><defs><linearGradient id="sw-gradient-0" x1="0" x2="0" y1="1" y2="0"><stop stop-color="rgba(241.709, 218.518, 211.069, 1)" offset="0%"/><stop stop-color="rgba(232.602, 227.509, 216.25, 1)" offset="100%"/></linearGradient></defs><path style="transform:translate(0, 0px); opacity:1" fill="url(#sw-gradient-0)" d="M0,170L240,158.7C480,147,960,125,1440,119C1920,113,2400,125,2880,141.7C3360,159,3840,181,4320,204C4800,227,5280,249,5760,255C6240,261,6720,249,7200,209.7C7680,170,8160,102,8640,113.3C9120,125,9600,215,10080,215.3C10560,215,11040,125,11520,85C12000,45,12480,57,12960,51C13440,45,13920,23,14400,11.3C14880,0,15360,0,15840,0C16320,0,16800,0,17280,28.3C17760,57,18240,113,18720,136C19200,159,19680,147,20160,147.3C20640,147,21120,159,21600,153C22080,147,22560,125,23040,119C23520,113,24000,125,24480,113.3C24960,102,25440,68,25920,45.3C26400,23,26880,11,27360,11.3C27840,11,28320,23,28800,68C29280,113,29760,193,30240,232.3C30720,272,31200,272,31680,226.7C32160,181,32640,91,33120,90.7C33600,91,34080,181,34320,226.7L34560,272L34560,340L34320,340C34080,340,33600,340,33120,340C32640,340,32160,340,31680,340C31200,340,30720,340,30240,340C29760,340,29280,340,28800,340C28320,340,27840,340,27360,340C26880,340,26400,340,25920,340C25440,340,24960,340,24480,340C24000,340,23520,340,23040,340C22560,340,22080,340,21600,340C21120,340,20640,340,20160,340C19680,340,19200,340,18720,340C18240,340,17760,340,17280,340C16800,340,16320,340,15840,340C15360,340,14880,340,14400,340C13920,340,13440,340,12960,340C12480,340,12000,340,11520,340C11040,340,10560,340,10080,340C9600,340,9120,340,8640,340C8160,340,7680,340,7200,340C6720,340,6240,340,5760,340C5280,340,4800,340,4320,340C3840,340,3360,340,2880,340C2400,340,1920,340,1440,340C960,340,480,340,240,340L0,340Z"/></svg>