<svg xmlns="http://www.w3.org/2000/svg" version="1.1" xmlns:xlink="http://www.w3.org/1999/xlink" viewBox="0 0 7.828828346908359 7.828828346908359"><g transform="matrix(1,0,0,1,2.7099574482854423,2.421205888623333)"><g><path d=" M -1.0284421560589123 1.539351287734652 L -1.7359871164681508 1.480358669556703 L -1.719784918517869 1.2860329409936024 L -1.181652131727744 1.3309005660866904 L -1.1548977330611248 1.0100139784081343 L -0.9854855594420114 1.0241389714929956 L -1.0284421560589123 1.539351287734652 M -0.9389569803525204 0.39940747039934765 L -0.7798572181335792 0.45930125690409607 L -0.9581293120830068 0.9328570197440034 L -1.6226047895856435 0.6827123819888776 L -1.4475035431570555 0.21757954773703192 L -1.2884037809381144 0.27747333424178033 L -1.3948033310818437 0.5601093824189582 L -1.3012152356589373 0.5953410215393985 L -1.2103176067282013 0.35388373534829953 L -1.062448415960009 0.4095497251585951 L -1.1533460448907449 0.6510070113496941 L -1.0485273780170894 0.6904664471645872 L -0.9389569803525204 0.39940747039934765 M -0.8444534020508561 -0.273633778030564 Q -0.8444534020508561 -0.273633778030564 -0.862657987446141 -0.26604476817513645 Q -0.8808625728414259 -0.2584557583197089 -0.9076715642484308 -0.2435719422855347 Q -0.9344805556554356 -0.2286881262513606 -0.9622928676590731 -0.20830491499767612 Q -0.9901051796627105 -0.18792170374399175 -1.0093206328794153 -0.1623333009474781 Q -1.0243327057049658 -0.14234236126270172 -1.02754333161419 -0.12474429656026875 Q -1.030753957523414 -0.10714623185783567 -1.015560843362984 -0.0957370565104172 Q -1.001167366789945 -0.08492836407602067 -0.982763626720291 -0.09111725343103527 Q -0.9643598866506371 -0.09730614278604977 -0.9394489024299678 -0.11549110539688756 Q -0.9145379182092986 -0.13367606800772536 -0.8795228301393119 -0.15865493122147223 Q -0.8238982061320371 -0.19942135372884096 -0.7742844490348124 -0.22219140218503874 Q -0.7246706919375878 -0.24496145064123664 -0.6766728139096776 -0.24143246993601186 Q -0.6286749358817674 -0.2379034892307872 -0.5750992175265669 -0.19767113405831138 Q -0.5239224119335396 -0.15924022762490164 -0.5029492838815355 -0.11472755639844934 Q -0.48197615582953135 -0.07021488517199703 -0.484604412165223 -0.023416463525173348 Q -0.4872326685009147 0.023381958121650392 -0.5068600160709749 0.06867011581617416 Q -0.526487363641035 0.11395827351069793 -0.5565115092921363 0.15394015288025048 Q -0.5871361378562596 0.1947216698371941 -0.6288591341965881 0.2327964853506662 Q -0.6705821305369166 0.2708713008641383 -0.7166005373807965 0.3013435215175655 Q -0.7626189442246764 0.33181574217099263 -0.8084306491693998 0.3511880856032572 L -0.8947281119194194 0.1813359501356424 Q -0.8947281119194194 0.1813359501356424 -0.8731228026102862 0.1725489933440857 Q -0.8515174933011531 0.16376203655252897 -0.8197069933605604 0.14638123986395468 Q -0.7878964934199678 0.1290004431753804 -0.7539812843938831 0.10382091584230707 Q -0.7200660753677984 0.0786413885092338 -0.6954462759338953 0.0458562474262007 Q -0.6762308227171905 0.02026784462968706 -0.6755217057972391 0.005168270026611688 Q -0.6748125888772877 -0.009931304576463684 -0.6860075151007624 -0.018338065358772027 Q -0.7027999044359745 -0.030948206532234623 -0.7252063607774561 -0.020261733109384727 Q -0.7476128171189378 -0.009575259686534943 -0.7773261551988259 0.012506804079116085 Q -0.8070394932787138 0.03458886784476717 -0.8440551847621356 0.06056652332027401 Q -0.8980775147047133 0.09753391256505661 -0.9432872272914572 0.11360661886561502 Q -0.9884969398782012 0.12967932516617342 -1.029092887165393 0.1229548130012994 Q -1.069688834452585 0.11623030083642538 -1.1112699889969195 0.08500518935928003 Q -1.1744413584008129 0.037567039230539945 -1.1946042827507235 -0.023845145893096387 Q -1.2147672071006341 -0.08525733101673261 -1.2004280245160555 -0.15014868516199698 Q -1.1860888419314768 -0.21504003930726134 -1.144055038019935 -0.271014670424635 Q -1.1128299265427897 -0.31259582496896965 -1.0737110354188333 -0.3438722115446602 Q -1.034592144294877 -0.37514859812035095 -0.9946781439184018 -0.39832450315007417 Q -0.9547641435419267 -0.4215004081797974 -0.9227544889269651 -0.43748108436795863 L -0.8444534020508561 -0.273633778030564 M -0.3939634882501606 -0.9678634692392234 L -0.029209030622238508 -0.6192947017907321 L -0.15568492475636125 -1.1071449331148284 L 0.021297341606786813 -1.210596745051419 L 0.16807846948975297 -0.4739962424060539 L 0.0005928125412128504 -0.37609550330508523 L -0.5718090827419093 -0.8639070143175762 L -0.3939634882501606 -0.9678634692392234 M 0.46417815522195854 -0.6034234809575211 L 0.25738057919203816 -1.2826397665014921 L 0.44392589705270635 -1.3394362838618226 L 0.6507234730826267 -0.6602199983178513 L 0.46417815522195854 -0.6034234809575211 M 0.9713635753591269 -1.0694037400204293 L 0.9865972639467732 -0.7207363702652216 L 0.7917831175219437 -0.7122247104526399 L 0.7607919458966461 -1.4215480128199678 L 0.9126470754175389 -1.4281827425200313 L 1.213132926306864 -1.0799669280955306 L 1.1973754432692125 -1.4406228607076508 L 1.3921895896940422 -1.4491345205202326 L 1.4231807613193397 -0.7398112181529048 L 1.268328491084219 -0.7330455398403399 L 0.9713635753591269 -1.0694037400204293 M 2.1149945389802447 -1.0544738919994447 Q 2.1149945389802447 -1.0544738919994447 2.1013593955238665 -1.0687246064700944 Q 2.087724252067488 -1.0829753209407438 2.0641853203347056 -1.1026264962969257 Q 2.0406463886019233 -1.1222776716531078 2.011615683871923 -1.1408846107587087 Q 1.9825849791419226 -1.1594915498643095 1.951793856594679 -1.1682039991342121 Q 1.927738292104645 -1.1750106001263236 1.9101646185135475 -1.1716690441244642 Q 1.89259094492245 -1.1683274881226047 1.8874179281684453 -1.1500452591101789 Q 1.882517175454125 -1.1327252526773544 1.8949178322912177 -1.117784579666788 Q 1.9073184891283104 -1.1028439066562217 1.9332536788693904 -1.0861521142691177 Q 1.9591888686104704 -1.0694603218820138 1.9951005618582283 -1.0457886027201333 Q 2.0531619713182288 -1.0085747245089316 2.092269790107298 -0.9704882635344421 Q 2.1313776088963676 -0.9324018025599525 2.145368702358782 -0.8863529230543012 Q 2.1593597958211967 -0.8403040435486502 2.141118105162338 -0.775835130715359 Q 2.1236932066225322 -0.7142528856208719 2.089718601565427 -0.6786582763209553 Q 2.0557439965083217 -0.6430636670210387 2.0111384508720724 -0.6286641774990973 Q 1.9665329052358234 -0.6142646879771559 1.9172151849585868 -0.6162678022165945 Q 1.86789746468135 -0.6182709164560329 1.819786335701282 -0.631884118440256 Q 1.7707129841416127 -0.6457695844641635 1.7201684033904239 -0.6709835757524655 Q 1.6696238226392353 -0.6961975670407674 1.624625133234127 -0.7281564148269846 Q 1.5796264438290186 -0.7601152626132018 1.5450574738982716 -0.7958781808096677 L 1.6724413213708291 -0.9375480625880057 Q 1.6724413213708291 -0.9375480625880057 1.6884186044866427 -0.9205561108391 Q 1.7043958876024563 -0.9035641590901945 1.7320652721340344 -0.8801461070865868 Q 1.7597346566656125 -0.8567280550829792 1.7954375026632539 -0.8341546905205421 Q 1.8311403486608955 -0.8115813259581052 1.8705914744245513 -0.8004185003310422 Q 1.901382596971795 -0.7917060510611394 1.9157246235541299 -0.7964816424916953 Q 1.9300666501364647 -0.801257233922251 1.9338783466920473 -0.8147283500366701 Q 1.939595891525421 -0.8349350242082987 1.9215580312305622 -0.8519903927467725 Q 1.9035201709357037 -0.8690457612852462 1.8722200417765422 -0.888814471779859 Q 1.8409199126173807 -0.9085831822744717 1.8033560382501046 -0.9337616520953226 Q 1.749415783148194 -0.9708486967273878 1.7181418770157777 -1.0072381566742024 Q 1.6868679708833616 -1.0436276166210168 1.6785233793194185 -1.0839217575304714 Q 1.6701787877554755 -1.1242158984399258 1.6843365178190675 -1.1742514725791966 Q 1.70584537695414 -1.250267056367704 1.7558776065026669 -1.2911910836182512 Q 1.8059098360511938 -1.332115110868798 1.8716115632083987 -1.3421042574069257 Q 1.9373132903656036 -1.3520934039450532 2.004668870937699 -1.3330349211671408 Q 2.05470444507697 -1.318877191103549 2.09796893969158 -1.2936446029338355 Q 2.1412334343061903 -1.268412014764122 2.177227141224928 -1.2395207866447078 Q 2.2132208481436653 -1.2106295585252937 2.2396557460559574 -1.1865215479817692 L 2.1149945389802447 -1.0544738919994447 M 2.40582652071134 -0.39869284451275944 L 2.862502831344298 -0.9423349577698821 L 3.0715370523572476 -0.7667397003011532 Q 3.1618888401943472 -0.6908413838860983 3.192209154629383 -0.6033360781466144 Q 3.2225294690644195 -0.5158307724071307 3.2017619515728146 -0.4281426305791966 Q 3.1809944340812093 -0.3404544887512626 3.117960239092435 -0.2654165632594344 Q 3.0484939833905202 -0.18272170659497067 2.96296415396717 -0.15008892738736057 Q 2.87743432454382 -0.11745614817975042 2.7874949614662867 -0.13554373976093315 Q 2.6975555983887536 -0.15363133134211587 2.61486074172429 -0.22309758704403057 L 2.40582652071134 -0.39869284451275944 M 2.9663530018742517 -0.3927713653796114 Q 3.0017293357965227 -0.4348844868291068 3.0138742185280476 -0.47888166655051073 Q 3.026019101259572 -0.5228788462719147 3.0132478886783067 -0.5636452065362814 Q 3.0004766760970414 -0.604411566800648 2.9621920202338634 -0.6365718703663492 L 2.9024679570873064 -0.6867419439288431 L 2.664481710701117 -0.40343549054132855 L 2.7242057738476744 -0.35326541697883457 Q 2.7632561228281154 -0.3204619073418193 2.8058751742025083 -0.31600472662449663 Q 2.848494225576901 -0.31154754590717404 2.8903786528357545 -0.3318685880359086 Q 2.932263080094608 -0.35218963016464305 2.9663530018742517 -0.3927713653796114 M 3.335785065975006 -0.1943335137018145 L 3.523436641763555 -0.33412938668837444 L 3.6190235634637666 -0.20582061691842624 L 3.4313719876752176 -0.06602474393186633 L 3.335785065975006 -0.1943335137018145 M 3.1091378709562574 0.34600871399897376 L 3.732817939561911 0.00671065620310729 L 3.826005434308663 0.17800306941170232 L 3.2023253657030097 0.5173011272075688 L 3.1091378709562574 0.34600871399897376 M 3.616305865679806 0.5153893766458388 Q 3.6791119807770167 0.49864446976655313 3.7458140178865267 0.5062166719192654 Q 3.8125160549960366 0.5137888740719777 3.8739025548927164 0.5460642149754442 Q 3.9352890547893957 0.5783395558789106 3.982148558248114 0.6357040652518875 Q 4.029008061706833 0.6930685746248644 4.050905247625899 0.7751996482135242 Q 4.0771818707287775 0.873756936519916 4.055694994285613 0.9581403717469567 Q 4.034208117842447 1.0425238069739973 3.9761024793459683 1.0963079568224092 L 3.835295720494924 0.9796440949719467 Q 3.8657654164791033 0.9580663836328891 3.8778125852222494 0.9294986443930724 Q 3.8898597539653954 0.9009309051532557 3.8897646157680024 0.8714607346630228 Q 3.889669477570609 0.8419905641727898 3.8827139008669054 0.8159018702093332 Q 3.871894114883367 0.7753194573772895 3.8480937985922568 0.7500995258856479 Q 3.824293482301146 0.7248795943940063 3.7931813162739036 0.7129933365685464 Q 3.762069150246661 0.7011070787430865 3.7277356361918743 0.7004289838752855 Q 3.693402122137087 0.6997508890074844 3.6615159406261957 0.7082521494231218 Q 3.625764767417014 0.7177838656467151 3.5957460914534294 0.7371714671846387 Q 3.5657274154898446 0.7565590687225622 3.5455317384804435 0.7836770448662929 Q 3.5253360614710423 0.8107950210100234 3.51869956813812 0.8441297919893189 Q 3.512063074805198 0.8774645629686144 3.5218524049807804 0.9141819841023682 Q 3.5288079816844835 0.9402706780658249 3.544234279699042 0.9651359013619474 Q 3.5596605777136 0.99000112465807 3.5839444091762243 1.0073301618354455 Q 3.6082282406388484 1.024659199012821 3.6422395416490354 1.0280105276440423 L 3.591406607180904 1.206117273090021 Q 3.535751822111366 1.1992219921774279 3.4873775652547234 1.1614075600969702 Q 3.4390033083980804 1.1235931280165126 3.4041894088455984 1.0687092287568052 Q 3.369375509293117 1.0138253294970978 3.353661058221787 0.9548842060981773 Q 3.333309556014655 0.8785506200569522 3.346872651783408 0.8071465415098016 Q 3.3604357475521605 0.7357424629626511 3.398927100872737 0.6763209540660358 Q 3.4374184541933133 0.6168994451694204 3.4940097305010958 0.574903285275256 Q 3.5506010068088782 0.5329071253810915 3.616305865679806 0.5153893766458388 M 3.4229916513416896 1.3449520748898631 L 4.132806159138837 1.3287235653867246 L 4.137263284988291 1.5236726203450963 L 3.427448777191143 1.5399011298482346 L 3.4229916513416896 1.3449520748898631" fill="#431a10" fill-rule="nonzero"></path></g><g clip-path="url(#SvgjsClipPath1001)"><g clip-path="url(#SvgjsClipPath100093a96167-408b-4969-8d71-07be42c1881d)"><path d=" M 1.8635959135274314 2.0015250732387666 C 1.8290027480692834 1.9222649084253172 1.8041666292788177 1.8387597947369658 1.7728046935612656 1.757979051222059 C 1.753353957671794 1.7077999540739752 1.7332062898774876 1.657240712250528 1.7073564519527178 1.6102294873971466 C 1.6728900013863572 1.5475689734079365 1.6177690234585385 1.5060064889014433 1.5498498414601223 1.4838947402844218 C 1.5296388162199221 1.4773055659114407 1.506766778252172 1.4782559275998515 1.4850351743105143 1.477622353140911 C 1.4795864339636264 1.477432280803229 1.4712232511056125 1.4831344509336932 1.4686889532698513 1.4883297614970046 C 1.437263660106405 1.5518139222828373 1.4012766308385873 1.6124469980034382 1.3574966357258025 1.668328265281986 C 1.3559126995784512 1.6703557035505952 1.3557226272407694 1.6734602183994034 1.3548356229982523 1.676121231126953 C 1.3560394144702392 1.6767548055858938 1.3572432059422261 1.677451737490728 1.358446997414213 1.6780853119496688 C 1.3618682994924913 1.6742838651960261 1.3652896015707696 1.6704190609964895 1.3687742610949425 1.6666176142428468 C 1.382712899191632 1.6514751846741702 1.4022269925269975 1.6476103804746332 1.4168625625285218 1.657177354804634 C 1.4329553537856095 1.6676946908230457 1.4375170898899807 1.688539290522186 1.4280134730058738 1.7078633115198696 C 1.4099566009260707 1.7448007024760979 1.3694078355538826 1.766025446850603 1.3197355979729515 1.7601965618283508 C 1.2218483440666523 1.7486655066756345 1.136062362326116 1.7093205327754328 1.0645951633576336 1.6410845635475464 C 1.035450738246373 1.6132072873541672 1.0096009003216027 1.581908709082509 0.9806465475480244 1.553841360551447 C 0.9517555522203398 1.5258373694662792 0.922230982433715 1.4981501656105818 0.8905522594866927 1.4733140468201165 C 0.8492432047637755 1.4408750345223653 0.8210491413409255 1.4605158427495193 0.8418937410400663 1.515636820677338 C 0.8604574726870214 1.564802198691117 0.9050611145964288 1.6223941170088036 0.9360429056386166 1.6639566015152971 C 0.9449129480637829 1.6758678013433772 0.9537829904889493 1.6878423586173519 0.9612591691044464 1.7005772052420547 C 0.9708261434344468 1.716860068836824 0.9688620626117318 1.736437519618084 0.9575844372425917 1.7486655066756345 C 0.944216016158948 1.7631110043394764 0.9290102291443775 1.7588660554645759 0.9131708676708663 1.7532906002258997 C 0.9013230252886799 1.7491090087968928 0.7995076097369502 1.6302504402996651 0.7814507376571473 1.5876108792129733 C 0.74812472111688 1.5089209314125693 0.7176497896418444 1.4289638346942852 0.68311998162959 1.3507807464610342 C 0.6696248456541584 1.3202424575401046 0.6503641821023689 1.2916682494418903 0.6302798717539567 1.2648046923828156 C 0.6148206549558098 1.2441501650213567 0.5815579958614362 1.2492187606928802 0.569900225816932 1.2719007263229485 C 0.5527937154255401 1.305226742863216 0.5760458980686545 1.428647047464815 0.6862244964783982 1.601422802417875 C 0.7037745089910485 1.6289199339358904 0.7255694703786001 1.6535026229427798 0.7451469211598599 1.679605890651126 C 0.7530032444507215 1.6900598692236433 0.7612397124169473 1.7002604180125842 0.767892244235822 1.7114113284899364 C 0.7782195079165511 1.7286445537731163 0.7760019973102598 1.7469548556364953 0.763520580469133 1.7588660554645759 C 0.750849091290324 1.7709673276303384 0.7322853596433688 1.7733749105743122 0.7159391386027053 1.761843855421596 C 0.7025073600731679 1.7524035959833832 0.6890122240977363 1.7413794003978196 0.6795719646595237 1.7282010516518584 C 0.640417063097004 1.6738403630747682 0.6001217275083915 1.6199865340648303 0.5652117748207728 1.5629014753142958 C 0.5256767285828889 1.4982135230564761 0.49760938005182725 1.4278867581140868 0.4901965588822239 1.3513509634740803 C 0.4883591929512966 1.3320269424763969 0.4832905972797731 1.3156173639898394 0.4705557506550701 1.3015520110013614 C 0.4666275890096393 1.2972437046805665 0.46231928268884415 1.2928086834679833 0.4573774019091086 1.289830883510963 C 0.4290566235944708 1.272661015673677 0.4066914451938728 1.2821012751118894 0.40523422393831 1.314983789530899 C 0.4040304324663231 1.341847346589974 0.4066914451938728 1.3698513376751418 0.41321726212095955 1.395891247937594 C 0.44185482766506773 1.5098079356550864 0.5038817671953375 1.6049708193879415 0.5818114256450124 1.691327018141524 C 0.6260982803249499 1.740365681263515 0.6800154667807818 1.7772397147738488 0.7322220021974746 1.8160778291068982 C 0.7775859334576105 1.849847347768424 0.8325801964936415 1.8589074625312727 0.8871943148543081 1.8628356241767032 C 0.9795061135219311 1.869551513441472 1.0721346994190248 1.8712621644806111 1.164446498086648 1.8781047686371681 C 1.2288176631149974 1.8829199345251153 1.2931888281433466 1.8904594705865068 1.3568630612668617 1.9009768066049184 C 1.4646974341785257 1.9187168914552513 1.54433774366734 1.9784629629333352 1.5898917472651586 2.0773005785280447 C 1.6208735383073463 2.1444594711757325 1.6439990060586729 2.2152297382393797 1.669658771645761 2.284796213831041 C 1.7181272177547047 2.4162629140611838 1.7658987319588146 2.547919686629009 1.8138603185006064 2.679576459196834 C 1.81595111421511 2.685278629327298 1.8179785524837193 2.6909807994577624 1.820005990752329 2.6966829695882257 C 1.9277770062180988 2.609756553821596 2.0231933197345304 2.50078174688384 2.10213669731851 2.374827144446479 C 2.0870576251957274 2.3600015021072727 2.0725487700859913 2.3441621406337614 2.0600673532448646 2.3271823451341573 C 1.9846719926309517 2.224606640231699 1.914345227688562 2.118356203467386 1.8633424837438555 2.0014617157928734 Z" fill="#b89494" transform="matrix(1,0,0,1,0,0)" fill-rule="nonzero"></path></g><g clip-path="url(#SvgjsClipPath100093a96167-408b-4969-8d71-07be42c1881d)"><path d=" M 1.5612541817210506 2.2170037467244126 C 1.5435774543166119 2.166507862346859 1.5234297865223059 2.117152411995398 1.4924479954801175 2.072802199869567 C 1.4593754087234263 2.0255375452326096 1.4136313327879264 1.9987373456194288 1.3587637846436833 1.9849254224145267 C 1.273421305024405 1.96351060570234 1.1861781020283053 1.9618633121090947 1.0990616139239937 1.9571115036670415 C 1.013212274737563 1.9524230526708823 0.9275530078888147 1.9457071634061136 0.8418303835941724 1.9390546315872383 C 0.8281451752810586 1.93797755500704 0.8242170136356278 1.9446934442718087 0.8208590690032435 1.9552107802902199 C 0.7943756566195327 2.0383991067491007 0.767512099560458 2.1214607183161935 0.7411554020685351 2.2047124022209683 C 0.7164459981698575 2.2826420606706432 0.6924335261760146 2.3608251489038943 0.6677874797232313 2.4387548073535696 C 0.657650288380184 2.470940389867744 0.6579670756096542 2.4712571770972143 0.6904060879074052 2.4784165684832415 C 0.7749882781759548 2.4971703724678784 0.8532347238551 2.530116244332782 0.9215340505288802 2.584350218018084 C 0.9519456245580217 2.6084894049037155 0.9784923943876265 2.636176608759413 0.9960424069002769 2.671720135905972 C 1.0341835893284916 2.749079577342601 1.0109947641312715 2.8242215081729376 0.9353459737337819 2.865910707571219 C 0.9284400121313311 2.869712154324862 0.9215340505288799 2.873196813849034 0.9145013740346412 2.876364686143736 C 1.0071299599317345 2.9069029750646656 1.1043202819331992 2.923249196105329 1.2044884038916839 2.923249196105329 C 1.4048880052545472 2.923249196105329 1.5933764067893306 2.858117741726251 1.757282119317224 2.743947624225182 C 1.7342833664576858 2.693831884522993 1.7112846135981474 2.6435260724831213 1.6925308096135103 2.5918263966335813 C 1.6473569506910564 2.4673923728976774 1.6051608917256222 2.3419446300274687 1.5613808966128377 2.2170037467244126 Z" fill="#701c1c" transform="matrix(1,0,0,1,0,0)" fill-rule="nonzero"></path></g><g clip-path="url(#SvgjsClipPath100093a96167-408b-4969-8d71-07be42c1881d)"><path d=" M 1.2044250464457904 0.06310401611046856 C 0.5750955363802441 0.06310401611046856 0.06316737355636265 0.7046615132335655 0.06316737355636265 1.4932082848308457 C 0.06316737355636265 1.855359445561205 0.17119181880570888 2.1864654578034832 0.3489728119843984 2.4386914499076755 C 0.3517605396037364 2.4386914499076755 0.3544849097771803 2.4386914499076755 0.3573359948424123 2.4387548073535696 C 0.41689199398281446 2.4406555307303903 0.5526036430878581 2.461563487875426 0.5572920940840174 2.4623871346720483 C 0.5713574470724955 2.4647947176160216 0.5761092555145486 2.457888756013571 0.5840289362513043 2.4357770073965495 C 0.6119695698905779 2.3575939191632984 0.6413674247854148 2.279917690497199 0.6673439776019732 2.2011010278050076 C 0.6898992283402531 2.132421556455863 0.7082728876495261 2.0623482212970496 0.7291174873486668 1.9930985329348587 C 0.7350730872627069 1.973267652370023 0.7431194828912506 1.953943631372339 0.750659018952642 1.9346196103746556 C 0.7552841125029072 1.9227717679924694 0.7535101040178739 1.91542230426876 0.7409653297308533 1.908959844787567 C 0.5724345236526942 1.8222235013586203 0.44819057225447234 1.6927208819511925 0.37013419891300947 1.519945126998133 C 0.3423836376114179 1.4585517619268038 0.31894138263062116 1.3949408862491826 0.3242634080857209 1.326071342562356 C 0.32622748890843634 1.3008550790965263 0.3338303824157216 1.2741815943751336 0.3458682971355902 1.252006488312218 C 0.3714013478308901 1.2049319060129426 0.43076727463361014 1.1917535572669815 0.48145323134884593 1.2177934675294337 C 0.5315056136051413 1.2435165905624161 0.5368909965061351 1.1594412598610184 0.5434801708791157 1.1285228262647247 C 0.5632476939980577 1.0355774531381614 0.6044933912750806 0.9492846118304722 0.6528351224922369 0.8680603661943069 C 0.6994028452243597 0.7897505630692675 0.7491384402511847 0.7072591685152215 0.808757796837481 0.638516339720183 C 0.81876827328874 0.6269852845674669 0.828842107185893 0.6153908719688567 0.8404998772303973 0.6055704678552798 C 0.9180493910047081 0.5403756560303078 1.0377316062985584 0.5826984298875296 1.1204130731902866 0.6157076591983269 C 1.2459241735063895 0.6658233989005163 1.359397359102624 0.7369104531936345 1.4655844384210428 0.8199087073148329 C 1.4972631613680651 0.8446814686594044 1.5234931439681998 0.8747128980131816 1.5388890033204528 0.9125372932119263 C 1.5551718669152217 0.9523891266792804 1.549533054230652 0.9978164153853105 1.5514337776074736 1.0404559764720025 C 1.556502373278997 1.153168872717508 1.543514096870718 1.273041160349041 1.5106315824517087 1.3810656055983874 C 1.506766778252172 1.3936737373313022 1.5079072122782644 1.4000094819207065 1.5236198588599876 1.4024804223105742 C 1.6426684996948981 1.4211075114034235 1.732446000526759 1.4820573743534946 1.7905447784115984 1.5886879557931717 C 1.8334377692818662 1.6675046184853635 1.8592876072066369 1.7529104555505355 1.8869748110623343 1.8374926458190852 C 1.9249892785987612 1.953626844142869 1.9798568267430041 2.061017714933275 2.0468256470530095 2.1625797007014285 C 2.075906714718376 2.2066764830436836 2.1066350759769876 2.24969618880574 2.1363497181012945 2.293412826472631 C 2.1388840159370566 2.2971509157803793 2.141354956326924 2.3008890050881283 2.143825896716792 2.3046270943958764 C 2.2711110055179278 2.0739426338956597 2.3458094342270064 1.7944095826111341 2.3458094342270064 1.4933349997226337 C 2.3458094342270064 0.7047882281253535 1.833817913957231 0.06323073100225647 1.2045517613375787 0.06323073100225647 Z" fill="#701c1c" transform="matrix(1,0,0,1,0,0)" fill-rule="nonzero"></path></g><g clip-path="url(#SvgjsClipPath100093a96167-408b-4969-8d71-07be42c1881d)"><path d=" M 1.2044250464457904 0 C 0.8813654298320559 0 0.5781366937831581 0.15623946157471424 0.3504933906858554 0.4398907468423525 C 0.12449738118179786 0.7215145938413813 0 1.0956403118457154 0 1.4932082848308457 C 0 1.8451588967722645 0.09757046667682898 2.1786091345126213 0.27674532366518745 2.4459141987395965 C 0.14743277659544218 2.4760089855392677 0.12145622377888374 2.590495890269806 0.13925966607511034 2.6373804002314 C 0.15136093824087288 2.669249195516104 0.16979795499603995 2.6975066163848482 0.19412721421935308 2.7219625904999494 C 0.24506660071816502 2.7733454791200196 0.3077271147073752 2.8059745637554525 0.3738722882207579 2.831380899558965 C 0.49849638429434384 2.8792791286548627 0.6281890760394535 2.9039885325535395 0.7618732868758877 2.9055091112549967 C 0.7772691462281407 2.9056991835926786 0.7925382906886054 2.9051289665796323 0.8076807202572822 2.903735102769964 C 0.933508607802855 2.957969076455266 1.067192818639289 2.986416569661692 1.2044884038916843 2.986416569661692 C 1.5275480205054184 2.986416569661692 1.8307767565543165 2.830177108086978 2.0584200596516187 2.5465258228193397 C 2.2844160691556765 2.264838618374417 2.408913450337474 1.890776257815977 2.408913450337474 1.493208284830846 C 2.408913450337474 1.0956403118457159 2.28447942660157 0.7215779512872755 2.0584200596516187 0.43989074684235285 C 1.830776756554316 0.15617610412882055 1.527548020505418 2.674431176893892e-16 1.2044884038916843 2.674431176893892e-16 Z M 0.8073005755819178 2.820103274189824 C 0.7588954869188679 2.821940640120752 0.7097301089050891 2.8221307124584336 0.6618318798091912 2.8158583253149234 C 0.5925188340011063 2.806734853106181 0.5204814180195775 2.795710657520617 0.4523088062375853 2.774802700375582 C 0.3935764538938059 2.7567458282957795 0.33763182916936446 2.7314028499381613 0.28859316604737384 2.6935784547394173 C 0.2650241961747892 2.675394867767826 0.24373609435439006 2.6528396170295463 0.22599600950405765 2.6288905024815974 C 0.17062160179266264 2.554002001434837 0.28935345539810237 2.523653784851589 0.3449812928930736 2.519408835976688 C 0.4047907218170519 2.514847099872317 0.4744205548546071 2.5100952914302637 0.5294148178906378 2.5330940442898022 C 0.5414527326105064 2.538099282515432 0.5448106772428908 2.5444983845507303 0.5387283624370625 2.5562828694870228 C 0.5313788987133533 2.5704749373672886 0.5248530817862668 2.5851105073688134 0.5176936904002396 2.5994926475867612 C 0.5066061373687818 2.621731111095571 0.5099007245552721 2.644666506509215 0.5259935158123595 2.656007489324249 C 0.5439870304462684 2.668678978503058 0.5678727875483232 2.6666515402344486 0.5825717149957415 2.6449832937386852 C 0.5989812934822991 2.62078074940716 0.610322276297333 2.592966830659675 0.6226769782466719 2.5661666310464937 C 0.6275555015805134 2.555585937582188 0.6324973823602488 2.5497570525599365 0.6452955864308458 2.55216463550391 C 0.7344395128037666 2.5687009288822558 0.8168675499119189 2.600696439058748 0.8848500893562289 2.6621531615759717 C 0.9026535316524557 2.678309310278953 0.9168455995327216 2.700484416341869 0.9270461483216627 2.722469450067102 C 0.9390840630415312 2.7484460028836604 0.9305308078458352 2.7691005302451193 0.9072152677568267 2.7861436831906174 C 0.8775006256325197 2.807811929686381 0.8429074601743713 2.81877276782605 0.8072372181360241 2.820103274189825 Z M 1.2044250464457904 2.9233125535512237 C 1.1042569244873055 2.9233125535512237 1.007066602485841 2.90696633251056 0.9144380165887475 2.8764280435896303 C 0.9214706930829865 2.873260171294928 0.9284400121313313 2.8697755117707557 0.9352826162878881 2.865974065017113 C 1.0109314066853776 2.824284865618832 1.0341202318825982 2.7491429347884946 0.9959790494543829 2.671783493351866 C 0.9784290369417326 2.636239966205307 0.9519456245580219 2.6085527623496096 0.9214706930829865 2.5844135754639788 C 0.8531713664092063 2.5302429592245703 0.774924920730061 2.497297087359667 0.6903427304615114 2.4784799259291357 C 0.6579670756096544 2.4712571770972147 0.6575869309342903 2.4709403898677444 0.6677241222773376 2.438818164799464 C 0.6923068112842267 2.360825148903895 0.7163826407239638 2.2827054181165383 0.7410920446226414 2.204775759666863 C 0.7674487421145639 2.121524075762088 0.794312299173639 2.0384624641949953 0.8207957115573496 1.9552741377361147 C 0.824153656189734 1.944756801717703 0.8280818178351649 1.9380409124529343 0.8417670261482784 1.9391179890331331 C 0.927489650442921 1.945770520852008 1.0132122747375634 1.9524864101167767 1.0989982564781002 1.9571748611129363 C 1.1861147445824118 1.9619266695549895 1.2734213050244052 1.9635739631482347 1.3587004271977898 1.9849887798604215 C 1.4135679753420327 1.9987373456194293 1.4593754087234267 2.02553754523261 1.492384638034224 2.072865557315462 C 1.5233664290764117 2.117215769441293 1.5435140968707184 2.166571219792754 1.5611908242751567 2.2170671041703076 C 1.604970819387942 2.3420079874733637 1.6471668783533753 2.467455730343572 1.6923407372758292 2.591889754079476 C 1.7111578987063607 2.6436527873749105 1.7340932941200047 2.693895241968888 1.7570920469795432 2.744010981671077 C 1.5932496918975434 2.8581810991721457 1.4047612903627607 2.923312553551224 1.2042983315540028 2.923312553551224 Z M 1.8202594205359053 2.6967463270341194 C 1.8182319822672957 2.6910441569036556 1.8161411865527923 2.6853419867731914 1.8141137482841827 2.6796398166427275 C 1.766152161742391 2.5479830440749027 1.718380647538281 2.416326271507078 1.6699122014293373 2.284859571276935 C 1.6442524358422488 2.215356453131168 1.6211269680909226 2.1445228286216262 1.590145177048735 2.0773639359739384 C 1.5445911734509168 1.9785896778251229 1.4649508639621025 1.9187802489011447 1.357116491050438 1.901040164050812 C 1.293442257926923 1.890586185478295 1.2290710928985737 1.8829832919710094 1.1646999278702244 1.8781681260830618 C 1.0724514866484953 1.871325521926505 0.9797595433055079 1.8695515134414715 0.8874477446378847 1.862898981622597 C 0.832833626277218 1.8589074625312723 0.7778393632411871 1.8499107052143178 0.7324754319810511 1.8161411865527919 C 0.6802688965643582 1.7772397147738486 0.6263517101085262 1.7404290387094086 0.582064855428589 1.6913903755874178 C 0.5041351969789138 1.6050341768338352 0.44210825744864407 1.50987129310098 0.4134706919045359 1.3959546053834875 C 0.40694487497744936 1.369851337675141 0.40428386224989965 1.341910704035867 0.40548765372188633 1.3150471469767924 C 0.40694487497744936 1.282101275111889 0.4293734108239413 1.2726610156736762 0.45763083169268515 1.2898942409568568 C 0.4625727124724207 1.2928720409138768 0.46681766134732167 1.2973070621264597 0.47080918043864667 1.301615368447255 C 0.4836073845092436 1.3156807214357327 0.48861262273487316 1.3320902999222906 0.49044998866580025 1.351414320919974 C 0.4978628098354036 1.4279501155599803 0.5259301583664653 1.4982768805023696 0.5654652046043493 1.5629648327601893 C 0.600311799846074 1.6200498915107238 0.6406704928805805 1.6739037205206617 0.6798253944431001 1.7282644090977521 C 0.6893290113272069 1.741442757843713 0.7028241473026382 1.7524035959833832 0.7161925683862819 1.7619072128674895 C 0.7325387894269456 1.7734382680202059 0.7510391636280065 1.771030685076232 0.7637740102527095 1.7589294129104696 C 0.7762554270938361 1.7470182130823888 0.7784729377001277 1.7287079112190102 0.7681456740193984 1.7114746859358299 C 0.7614931422005237 1.700323775458478 0.7531933167884037 1.6900598692236428 0.7454003509434363 1.6796692480970195 C 0.7257595427162825 1.6535659803886733 0.7039645813287312 1.6289832913817839 0.6864779262619748 1.6014861598637684 C 0.5762359704063368 1.4287737623566028 0.5529837877632224 1.3052901003091097 0.5701536556005088 1.271964083768842 C 0.581811425645013 1.2492187606928797 0.6150740847393864 1.2442135224672506 0.6305333015375333 1.264868049828709 C 0.6506809693318396 1.2917316068877838 0.6699416328836292 1.3203058149859983 0.6833734114131665 1.3508441039069277 C 0.717903219425421 1.4290271921401787 0.7483147934545625 1.508984288858463 0.7817041674407241 1.5876742366588668 C 0.7997610395205268 1.6303137977455593 0.9015130976263627 1.7491723662427867 0.9134242974544431 1.7533539576717938 C 0.9292636589279543 1.7589294129104696 0.944469445942525 1.7632377192312645 0.9578378670261682 1.748728864121528 C 0.9691154923953081 1.7365008770639776 0.9710795732180236 1.7168600688368236 0.961512598888023 1.7006405626879482 C 0.9540364202725257 1.6879057160632454 0.9451663778473595 1.675931158789271 0.9362963354221934 1.6640199589611906 C 0.9053145443800056 1.6224574744546976 0.8607109024705978 1.5648655561370108 0.8421471708236427 1.5157001781232322 C 0.8213025711245021 1.4605792001954132 0.8494966345473518 1.441001749414153 0.8908056892702692 1.47337740426601 C 0.9224844122172914 1.4982135230564757 0.9520089820039164 1.5259007269121732 0.9808999773316007 1.5539047179973409 C 1.009854330105179 1.5819720665284025 1.0357041680299492 1.6132706448000607 1.06484859314121 1.64114792099344 C 1.1363157921096918 1.7093838902213259 1.2221017738502287 1.748792221567422 1.3199890277565278 1.7602599192742443 C 1.369661265337459 1.7660888042964964 1.4102100307096475 1.7448640599219913 1.4282669027894501 1.707926668965763 C 1.437770519673557 1.6886026479680796 1.4331454261232914 1.6677580482689394 1.4171159923120982 1.6572407122505275 C 1.402543779756468 1.6476737379205268 1.3829663289752083 1.6514751846741693 1.3690276908785188 1.6666809716887403 C 1.365543031354346 1.670482418442383 1.3621217292760677 1.6743472226419196 1.3587004271977894 1.6781486693955623 C 1.3574966357258025 1.6775150949366215 1.3562928442538156 1.6768181630317873 1.3550890527818287 1.6761845885728472 C 1.3559126995784512 1.673586933291191 1.3561661293620275 1.670482418442383 1.3577500655093788 1.6683916227278794 C 1.4015300606221637 1.612510355449332 1.4375170898899812 1.5519406371746254 1.4689423830534272 1.4883931189428983 C 1.4715400383350832 1.4831978083795867 1.4798398637472032 1.477558995695017 1.4852886040940907 1.4776857105868049 C 1.5070202080357484 1.4783192850457452 1.5298922460034985 1.4773689233573346 1.5501032712436986 1.4839580977303153 C 1.6179590957962202 1.506069846347337 1.6731434311699336 1.54763233085383 1.7076098817362941 1.6102928448430402 C 1.733459719661064 1.6573040696964216 1.7536073874553704 1.7078633115198691 1.773058123344842 1.7580424086679525 C 1.804420059062394 1.8388231521828597 1.8291928204069658 1.9222649084253167 1.8638493433110077 2.0015884306846607 C 1.9148520872557142 2.1184195609132788 1.9851788521981035 2.2246699976775917 2.060574212812017 2.3273090600259443 C 2.0731189870990376 2.3443522129714425 2.0875644847628796 2.3601282169990596 2.1026435568856625 2.374953859338266 C 2.023700179301683 2.500908461775627 1.9282838657852515 2.609883268713384 1.8205128503194812 2.696809684480013 Z M 1.0020613642602114 0.8917560509586795 C 1.072071341973131 0.9339521099241133 1.1441721154005535 0.9732337263784211 1.2177301100835398 1.008840610970874 C 1.280263909180962 1.0390621126623336 1.3475495167204374 1.058005988984653 1.4161022731777937 1.0706141207175677 C 1.4359965111885238 1.0742888525794223 1.4562708938746178 1.0712476951765084 1.47603841699356 1.07378199301227 C 1.4854153189858785 1.1208565753115454 1.4729339021447516 1.1835804467466495 1.4666615150012412 1.2312252460589712 C 1.4607059150872013 1.2767792496567891 1.4515824428784587 1.321953108579243 1.437580447335875 1.365669746246134 C 1.4058383669429586 1.4650775788538901 1.3574332782799086 1.558529811547606 1.2983207812607642 1.644315793288143 C 1.2929987558056648 1.6521087591331105 1.2872332282293066 1.659965082423972 1.2802005517350676 1.6661107546756941 C 1.2679092072316227 1.6769448779235754 1.2518797734204294 1.676121231126953 1.2415525097397 1.665603895108542 C 1.2296413099116195 1.6534392654968852 1.22729708441354 1.6350656061876123 1.2383212799991037 1.623661265926684 C 1.2770326794403652 1.5837460750134362 1.300791721650632 1.5344539821078693 1.3255011255493092 1.4859221785530308 C 1.369724622783353 1.399185835124084 1.4002629117042824 1.307634325807189 1.4187632859053434 1.2120279399530756 C 1.4218044433082577 1.1962519359254584 1.4180029965546148 1.189599404106584 1.4020369201893157 1.1861147445824114 C 1.2718373688770537 1.1576672513759854 1.1455026217643283 1.1166116264366446 1.0220189597168357 1.0666859590721371 C 0.9608790244290822 1.0419131977275657 0.8999291614790113 1.0167602917076302 0.845568472901921 0.9787458241712029 C 0.8242170136356278 0.9637934669402083 0.8046395628543679 0.9464335267652404 0.7843018227223797 0.9300873057245767 C 0.7843018227223797 0.9300873057245767 0.7842384652764857 0.9300239482786827 0.7841751078305915 0.9299605908327885 C 0.7756218526348957 0.9230546292303377 0.7629503634560867 0.9255889270660994 0.757755052892775 0.9352192588419944 C 0.7433095552289328 0.9620194584551752 0.7290541299027729 0.987425794258687 0.7171429300746924 1.0139092066423976 C 0.69674183249681 1.0593364953484277 0.6786849604170073 1.1058408606346568 0.6604380159995223 1.1522185110290974 C 0.6556228501115752 1.164383140640754 0.6501741097646871 1.1709723150137348 0.6373125482481959 1.1660937916798932 C 0.6325607398061428 1.16431978319486 0.6277455739181954 1.1627358470475089 0.6227403356925657 1.1620389151426742 C 0.5968904977677953 1.1583641832808196 0.596130208417067 1.1584908981726079 0.6051903231799153 1.1337181368280362 C 0.6437750077293886 1.0284814191980283 0.6909129474745579 0.927869795118285 0.7600992783908546 0.838472438961788 C 0.7785362951460215 0.8147133967515212 0.792094788567347 0.7871529077876117 0.8081875798244345 0.7614931422005237 C 0.8121157414698652 0.755220755057013 0.8171209796954948 0.7495819423724432 0.8218727881375482 0.7432461977830387 C 0.8254841625535086 0.7456537807270124 0.8279551029433765 0.746477427523635 0.8291588944153634 0.7482514360086682 C 0.874015966108347 0.8114188095650309 0.9375634843400737 0.8529179366256302 1.0019980068143175 0.8917560509586795 Z M 0.8956208551582163 0.670004990329523 C 0.899358944465965 0.6617685223632971 0.9167188846409332 0.6560663522328333 0.9283132972395434 0.6555594926656808 C 0.9765283135649114 0.6534686969511773 1.0225891767298818 0.6666470456971387 1.0670661037475009 0.6830566241836963 C 1.191816914712875 0.7289907724568786 1.3033893769322882 0.7984938906026456 1.408245949886932 0.8792112766716587 C 1.4262394645208407 0.8930865573224546 1.4404948898470007 0.912157148536562 1.4552571747403134 0.9297705184951064 C 1.4596921959528966 0.9350291865043122 1.5213389908078023 1.065038665478892 1.2089234251042675 0.9161486676278868 C 1.1167383413284324 0.8692008002203997 1.0276577724014053 0.8172476945872827 0.9466235991029223 0.7526230997753572 C 0.9300873057245767 0.739444751029396 0.9142479442510655 0.7241756065689312 0.9020833146394089 0.7070690961775392 C 0.895240710482852 0.6974387644016443 0.8913125488374215 0.6797620369972058 0.8956842126041104 0.670004990329523 Z M 2.1436991818250033 2.3044370220581945 C 2.141228241435136 2.3006355753045518 2.138757301045268 2.296897485996803 2.1362230032095058 2.293222754134949 C 2.106508361085199 2.249569473913952 2.075779999826587 2.2064864107060016 2.046698932161221 2.1623896283637465 C 1.9797301118512154 2.060827642595593 1.9248625637069727 1.9534367718051868 1.886848096170546 1.8373025734814028 C 1.8591608923148482 1.7527837406587474 1.8333744118359718 1.6673145461476815 1.7904180635198095 1.5884978834554897 C 1.7323192856349705 1.4818673020158126 1.6425417848031092 1.4209174390657417 1.5234931439681993 1.4022903499728923 C 1.5077804973864761 1.3998194095830245 1.5066400633603831 1.3934836649936202 1.5105048675599198 1.3808755332607054 C 1.543387381978929 1.272914445457253 1.5563756583872081 1.1530421578257206 1.5513070627156846 1.040265904134321 C 1.549406339338863 0.9975629856017345 1.5550451520234334 0.9521990543415987 1.5387622884286638 0.9123472208742446 C 1.5233664290764108 0.8745228256754999 1.4971364464762764 0.8444280388758287 1.4654577235292539 0.8197186349771511 C 1.359270644210835 0.7367203808559527 1.245797458614601 0.6656333265628345 1.1202863582984983 0.6155175868606452 C 1.0376048914067695 0.5825083575498478 0.9179226761129193 0.5401855836926259 0.8403731623386087 0.605380395517598 C 0.8286520348482105 0.615200799631175 0.8186415583969512 0.6267952122297851 0.8086310819456923 0.6383262673825012 C 0.7490117253593962 0.7070690961775397 0.6992761303325711 0.789560490731586 0.652708407600448 0.8678702938566252 C 0.6043666763832921 0.9490945394927905 0.5631209791062689 1.0353873808004794 0.5433534559873269 1.1283327539270427 C 0.5367642816143463 1.1592511875233364 0.5314422561592465 1.2433265182247342 0.48132651645705715 1.2176033951917518 C 0.43057720229592755 1.1915634849292995 0.3712746329391015 1.204741833675261 0.34574158224380147 1.251816415974536 C 0.3337036675239329 1.273991522037452 0.3260374165707535 1.3006650067588448 0.32413669319393223 1.3258812702246745 C 0.31887802518472647 1.394750813911501 0.3423202801655231 1.4583616895891223 0.37000748402122063 1.5197550546604515 C 0.4480638573626837 1.692530809613511 0.5723078087609056 1.8220334290209383 0.7408386148390644 1.9087697724498858 C 0.7533833891260853 1.915232231931078 0.7551573976111186 1.9225816956547874 0.7505323040608534 1.934429538036974 C 0.7429927679994621 1.9537535590346575 0.7349463723709183 1.9730775800323415 0.728990772456878 1.9929084605971772 C 0.7081461727577375 2.062158148959368 0.6898358708943583 2.1322314841181815 0.6672172627101844 2.200910955467326 C 0.6413040673395202 2.2797276181595176 0.6119062124446836 2.3574038468256164 0.5839022213595156 2.435586935058868 C 0.57598254062276 2.4577620411217835 0.5712307321807066 2.4646680027242343 0.5571653791922287 2.4621970623343663 C 0.5524769281960694 2.4613734155377442 0.4167652790910256 2.4404654583927092 0.35720927995062357 2.438564735015888 C 0.3543581948853917 2.438501377569994 0.3516338247119477 2.438564735015888 0.34884609709260966 2.438501377569994 C 0.17106510391392027 2.1862753854658017 0.06304065866457395 1.855169373223524 0.06304065866457395 1.4930182124931646 C 0.06304065866457395 0.7044714408958842 0.5750321789343492 0.06291394377278726 1.2042983315540015 0.06291394377278726 C 1.8335644841736538 0.06291394377278726 2.345556004443429 0.7044714408958842 2.345556004443429 1.4930182124931646 C 2.345556004443429 1.794029437935771 2.2708575757343503 2.0736258466661903 2.1435724669332146 2.3043103071664075 Z" fill="#431a10" transform="matrix(1,0,0,1,0,0)" fill-rule="nonzero"></path></g></g><g><path d=" M -2.082555086043079 1.493208284830846 A 3.287011811211816 3.287011811211816 0 0 1 4.4914685363805535 1.493208284830846 A 3.287011811211816 3.287011811211816 0 0 1 -2.0825550860430786 1.493208284830846 Z M -2.032555086043079 1.493208284830846 A 3.2370118112118162 3.2370118112118162 0 0 0 4.441468536380553 1.493208284830846 A 3.2370118112118162 3.2370118112118162 0 0 0 -2.0325550860430797 1.493208284830846 Z" fill="#431a10" fill-rule="nonzero"></path></g><g transform="matrix(-0.42828617337751246,-0.9036431561704251,0.9036431561704251,-0.42828617337751246,-3.878359508744604,2.1958400884176603)"><g clip-path="url(#SvgjsClipPath1002)"><path d=" M -1.2442664070981797 2.445587727036605 C -1.2262458356696082 2.445587727036605 -1.2166724070981796 2.434324869893748 -1.2166724070981796 2.418556869893748 C -1.2166724070981796 2.410109727036605 -1.2186434070981798 2.402788869893748 -1.2262458356696082 2.387584012750891 C -1.2369455499553226 2.3664661556080335 -1.2389165499553225 2.3597084413223195 -1.2408875499553225 2.340280012750891 C -1.2270905499553224 2.341687869893748 -1.2152645499553225 2.3447851556080335 -1.2054095499553226 2.3492902984651765 C -1.180068121383894 2.3608347270366052 -1.1727472642410368 2.3639320127508907 -1.1620475499553224 2.3639320127508907 C -1.1474058356696082 2.3639320127508907 -1.1355798356696083 2.3540770127508908 -1.1355798356696083 2.3363380127508906 C -1.1355798356696083 2.318880584179462 -1.1471242642410369 2.308744012750891 -1.1620475499553224 2.308744012750891 C -1.1704946928124653 2.308744012750891 -1.1809128356696084 2.3118412984651764 -1.1935835499553225 2.3177542984651764 L -1.2054095499553226 2.323385727036605 C -1.2163908356696083 2.328454012750891 -1.2282168356696082 2.3315512984651763 -1.2408875499553225 2.332959155608034 C -1.2389165499553225 2.316064869893748 -1.2344114070981798 2.301141584179462 -1.227372121383894 2.2876261556080335 C -1.2203328356696082 2.2743922984651763 -1.2166724070981796 2.2631294413223193 -1.2166724070981796 2.2541191556080338 C -1.2166724070981796 2.2394774413223195 -1.2251195499553225 2.2276514413223194 -1.2442664070981797 2.2276514413223194 C -1.2636948356696083 2.2276514413223194 -1.2724235499553225 2.2391958698937477 -1.2724235499553225 2.2541191556080338 C -1.2724235499553225 2.2634110127508906 -1.270170978526751 2.2693240127508907 -1.2572186928124653 2.2974811556080335 C -1.2527135499553226 2.307336155608034 -1.2496162642410367 2.3191621556080335 -1.2482084070981796 2.332959155608034 C -1.2620054070981797 2.3315512984651763 -1.276083978526751 2.327327727036605 -1.2910072642410368 2.3197252984651766 C -1.3056492131696082 2.3124044413223195 -1.3177567845981797 2.308744012750891 -1.3270486417410368 2.308744012750891 C -1.341690356026751 2.308744012750891 -1.3535163560267511 2.318599012750891 -1.3535163560267511 2.3363380127508906 C -1.3535163560267511 2.3540770127508908 -1.3419719274553226 2.3639320127508907 -1.3270486417410368 2.3639320127508907 C -1.3169120703124653 2.3639320127508907 -1.3107174988838939 2.361679441322319 -1.2836864070981797 2.3492902984651765 C -1.2738314070981795 2.3447851556080335 -1.2620054070981797 2.341687869893748 -1.2482084070981796 2.340280012750891 C -1.2501794070981798 2.3571742984651767 -1.2546845499553225 2.3720975841794623 -1.261723835669608 2.3856130127508908 C -1.268763121383894 2.398846869893748 -1.2724235499553225 2.4098281556080337 -1.2724235499553225 2.418556869893748 C -1.2724235499553225 2.4340432984651765 -1.2628501213838939 2.445587727036605 -1.2442664070981797 2.445587727036605 Z" fill="#431a10" transform="matrix(1,0,0,1,0,0)" fill-rule="nonzero"></path></g></g><g transform="matrix(0.42828617337751246,-0.9036431561704251,-0.9036431561704251,-0.42828617337751246,4.189520237994797,6.621899129267234)"><g clip-path="url(#SvgjsClipPath1003)"><path d=" M 3.6537500395785103 2.445587727036605 C 3.671770611007082 2.445587727036605 3.6813440395785104 2.434324869893748 3.6813440395785104 2.418556869893748 C 3.6813440395785104 2.410109727036605 3.6793730395785103 2.402788869893748 3.671770611007082 2.387584012750891 C 3.6610708967213674 2.3664661556080335 3.6590998967213677 2.3597084413223195 3.6571288967213675 2.340280012750891 C 3.6709258967213674 2.341687869893748 3.6827518967213675 2.3447851556080335 3.6926068967213674 2.3492902984651765 C 3.717948325292796 2.3608347270366052 3.725269182435653 2.3639320127508907 3.7359688967213676 2.3639320127508907 C 3.750610611007082 2.3639320127508907 3.762436611007082 2.3540770127508908 3.762436611007082 2.3363380127508906 C 3.762436611007082 2.318880584179462 3.750892182435653 2.308744012750891 3.7359688967213676 2.308744012750891 C 3.7275217538642247 2.308744012750891 3.7171036110070816 2.3118412984651764 3.7044328967213676 2.3177542984651764 L 3.6926068967213674 2.323385727036605 C 3.6816256110070817 2.328454012750891 3.6697996110070816 2.3315512984651763 3.6571288967213675 2.332959155608034 C 3.6590998967213677 2.316064869893748 3.6636050395785102 2.301141584179462 3.670644325292796 2.2876261556080335 C 3.677683611007082 2.2743922984651763 3.6813440395785104 2.2631294413223193 3.6813440395785104 2.2541191556080338 C 3.6813440395785104 2.2394774413223195 3.6728968967213675 2.2276514413223194 3.6537500395785103 2.2276514413223194 C 3.6343216110070817 2.2276514413223194 3.6255928967213675 2.2391958698937477 3.6255928967213675 2.2541191556080338 C 3.6255928967213675 2.2634110127508906 3.627845468149939 2.2693240127508907 3.6407977538642244 2.2974811556080335 C 3.6453028967213674 2.307336155608034 3.6484001824356533 2.3191621556080335 3.6498080395785104 2.332959155608034 C 3.63601103957851 2.3315512984651763 3.621932468149939 2.327327727036605 3.6070091824356534 2.3197252984651766 C 3.592367233507082 2.3124044413223195 3.5802596620785105 2.308744012750891 3.5709678049356532 2.308744012750891 C 3.556326090649939 2.308744012750891 3.544500090649939 2.318599012750891 3.544500090649939 2.3363380127508906 C 3.544500090649939 2.3540770127508908 3.5560445192213677 2.3639320127508907 3.5709678049356532 2.3639320127508907 C 3.5811043763642245 2.3639320127508907 3.587298947792796 2.361679441322319 3.6143300395785105 2.3492902984651765 C 3.6241850395785105 2.3447851556080335 3.63601103957851 2.341687869893748 3.6498080395785104 2.340280012750891 C 3.6478370395785102 2.3571742984651767 3.6433318967213677 2.3720975841794623 3.636292611007082 2.3856130127508908 C 3.629253325292796 2.398846869893748 3.6255928967213675 2.4098281556080337 3.6255928967213675 2.418556869893748 C 3.6255928967213675 2.4340432984651765 3.635166325292796 2.445587727036605 3.6537500395785103 2.445587727036605 Z" fill="#431a10" transform="matrix(1,0,0,1,0,0)" fill-rule="nonzero"></path></g></g></g><defs><clipPath id="SvgjsClipPath1001"><path d=" M 0 0 h 2.4089134503374736 v 2.986416569661692 h -2.4089134503374736 Z"></path></clipPath><clipPath id="SvgjsClipPath100093a96167-408b-4969-8d71-07be42c1881d"><path d=" M 0 0 L 2.4089134503374736 0 L 2.4089134503374736 2.986416569661692 L 0 2.986416569661692 Z"></path></clipPath><clipPath id="SvgjsClipPath1002"><path d=" M -1.4088014981696082 2.1605435841794622 h 0.32849999999999996 v 0.32849999999999996 h -0.32849999999999996 Z"></path></clipPath><clipPath id="SvgjsClipPath1003"><path d=" M 3.489214948507082 2.1605435841794622 h 0.32849999999999996 v 0.32849999999999996 h -0.32849999999999996 Z"></path></clipPath></defs></svg>