<?xml version="1.0" standalone="no"?>
<svg xmlns:xlink="http://www.w3.org/1999/xlink" id="wave" style="transform:rotate(180deg); transition: 0.3s" viewBox="0 0 1440 490" version="1.1" xmlns="http://www.w3.org/2000/svg"><defs><linearGradient id="sw-gradient-0" x1="0" x2="0" y1="1" y2="0"><stop stop-color="rgba(255, 241.393, 241.393, 1)" offset="0%"/><stop stop-color="rgba(203.915, 203.915, 203.915, 1)" offset="100%"/></linearGradient></defs><path style="transform:translate(0, 0px); opacity:1" fill="url(#sw-gradient-0)" d="M0,98L80,130.7C160,163,320,229,480,220.5C640,212,800,131,960,122.5C1120,114,1280,180,1440,179.7C1600,180,1760,114,1920,73.5C2080,33,2240,16,2400,16.3C2560,16,2720,33,2880,89.8C3040,147,3200,245,3360,294C3520,343,3680,343,3840,318.5C4000,294,4160,245,4320,261.3C4480,278,4640,359,4800,367.5C4960,376,5120,310,5280,285.8C5440,261,5600,278,5760,245C5920,212,6080,131,6240,147C6400,163,6560,278,6720,294C6880,310,7040,229,7200,204.2C7360,180,7520,212,7680,236.8C7840,261,8000,278,8160,310.3C8320,343,8480,392,8640,375.7C8800,359,8960,278,9120,277.7C9280,278,9440,359,9600,392C9760,425,9920,408,10080,375.7C10240,343,10400,294,10560,294C10720,294,10880,343,11040,326.7C11200,310,11360,229,11440,187.8L11520,147L11520,490L11440,490C11360,490,11200,490,11040,490C10880,490,10720,490,10560,490C10400,490,10240,490,10080,490C9920,490,9760,490,9600,490C9440,490,9280,490,9120,490C8960,490,8800,490,8640,490C8480,490,8320,490,8160,490C8000,490,7840,490,7680,490C7520,490,7360,490,7200,490C7040,490,6880,490,6720,490C6560,490,6400,490,6240,490C6080,490,5920,490,5760,490C5600,490,5440,490,5280,490C5120,490,4960,490,4800,490C4640,490,4480,490,4320,490C4160,490,4000,490,3840,490C3680,490,3520,490,3360,490C3200,490,3040,490,2880,490C2720,490,2560,490,2400,490C2240,490,2080,490,1920,490C1760,490,1600,490,1440,490C1280,490,1120,490,960,490C800,490,640,490,480,490C320,490,160,490,80,490L0,490Z"/></svg>